<?xml version="1.0" encoding="UTF-8" standalone="no"?>
<svg xmlns:dc="http://purl.org/dc/elements/1.1/" xmlns:cc="http://creativecommons.org/ns#" xmlns:rdf="http://www.w3.org/1999/02/22-rdf-syntax-ns#" xmlns:svg="http://www.w3.org/2000/svg" xmlns="http://www.w3.org/2000/svg" xmlns:xlink="http://www.w3.org/1999/xlink" xmlns:sodipodi="http://sodipodi.sourceforge.net/DTD/sodipodi-0.dtd" xmlns:inkscape="http://www.inkscape.org/namespaces/inkscape" inkscape:export-ydpi="245.75999" inkscape:export-xdpi="245.75999" inkscape:export-filename="/home/sgs/Bilder/garuda-orange-1024.png" sodipodi:docname="garuda-blue-sgs.svg" inkscape:version="1.0.1 (3bc2e813f5, 2020-09-07)" id="svg8915" version="1.1" viewBox="0 0 105.83333 105.83334" height="400" width="400">
  <defs id="defs8909">
    <linearGradient y2="236.78419" x2="104.03497" y1="236.78419" x1="84.990685" gradientTransform="matrix(0.99582913,0,0,0.99582913,0.87079473,-0.85671616)" gradientUnits="userSpaceOnUse" id="linearGradient2351" xlink:href="#linearGradient2098" inkscape:collect="always"/>
    <linearGradient inkscape:collect="always" id="linearGradient2098">
      <stop style="stop-color:#2972e2;stop-opacity:1" offset="0" id="stop2094"/>
      <stop style="stop-color:#26c7fc;stop-opacity:1" offset="1" id="stop2096"/>
    </linearGradient>
    <linearGradient y2="249.92128" x2="73.893196" y1="249.92128" x1="60.396301" gradientTransform="matrix(0.96437972,-0.24828898,0.24828898,0.96437972,-62.301569,25.352966)" gradientUnits="userSpaceOnUse" id="linearGradient2353" xlink:href="#linearGradient2110" inkscape:collect="always"/>
    <linearGradient inkscape:collect="always" id="linearGradient2110">
      <stop style="stop-color:#26c4fb;stop-opacity:1" offset="0" id="stop2106"/>
      <stop style="stop-color:#2977e3;stop-opacity:1" offset="1" id="stop2108"/>
    </linearGradient>
    <linearGradient y2="246.41939" x2="73.997559" y1="249.92128" x1="60.396301" gradientTransform="matrix(0.99582913,0,0,0.99582913,0.87079473,-0.85671616)" gradientUnits="userSpaceOnUse" id="linearGradient2355" xlink:href="#linearGradient2110" inkscape:collect="always"/>
    <linearGradient y2="228.14523" x2="84.990685" y1="228.14523" x1="64.392105" gradientTransform="matrix(0.99582913,0,0,0.99582913,0.87079473,-0.85671616)" gradientUnits="userSpaceOnUse" id="linearGradient2357" xlink:href="#linearGradient2098" inkscape:collect="always"/>
    <linearGradient y2="237.95784" x2="84.151169" y1="234.05646" x1="84.361542" gradientTransform="matrix(0.99582913,0,0,0.99582913,0.87079473,-0.85671615)" gradientUnits="userSpaceOnUse" id="linearGradient2359" xlink:href="#linearGradient2110" inkscape:collect="always"/>
    <linearGradient y2="223.45911" x2="50.305416" y1="230.94318" x1="9.4423542" gradientTransform="matrix(0.99582913,0,0,0.99582913,0.87079473,-0.85671615)" gradientUnits="userSpaceOnUse" id="linearGradient2361" xlink:href="#linearGradient2110" inkscape:collect="always"/>
    <linearGradient y2="222.32001" x2="64.62645" y1="222.32001" x1="26.040033" gradientTransform="matrix(0.99582912,0,0,0.99582912,0.87079473,-0.85672615)" gradientUnits="userSpaceOnUse" id="linearGradient2363" xlink:href="#linearGradient2110" inkscape:collect="always"/>
    <linearGradient y2="226.43633" x2="94.986862" y1="226.43633" x1="84.990685" gradientTransform="matrix(0.99582913,0,0,0.99582913,0.87079473,-0.85671616)" gradientUnits="userSpaceOnUse" id="linearGradient2365" xlink:href="#linearGradient2104" inkscape:collect="always"/>
    <linearGradient inkscape:collect="always" id="linearGradient2104">
      <stop style="stop-color:#279ff0;stop-opacity:1" offset="0" id="stop2100"/>
      <stop style="stop-color:#8de1fd;stop-opacity:1" offset="1" id="stop2102"/>
    </linearGradient>
    <linearGradient y2="228.64478" x2="104.03497" y1="228.64478" x1="84.990685" gradientTransform="matrix(0.99582913,0,0,0.99582913,0.81058379,-0.99644715)" gradientUnits="userSpaceOnUse" id="linearGradient2367" xlink:href="#linearGradient2104" inkscape:collect="always"/>
    <linearGradient y2="242.79604" x2="104.03497" y1="242.79604" x1="96.589539" gradientTransform="matrix(0.99582913,0,0,0.99582913,0.87079473,-0.85671615)" gradientUnits="userSpaceOnUse" id="linearGradient2369" xlink:href="#linearGradient2104" inkscape:collect="always"/>
    <linearGradient y2="213.70825" x2="87.139732" y1="213.70825" x1="68.41713" gradientTransform="matrix(0.99582913,0,0,0.99582913,0.87079473,-0.85671615)" gradientUnits="userSpaceOnUse" id="linearGradient2371" xlink:href="#linearGradient2110" inkscape:collect="always"/>
    <linearGradient y2="210.37106" x2="78.71286" y1="210.37106" x1="49.313831" gradientTransform="matrix(0.99582913,0,0,0.99582913,0.87079473,-0.85671615)" gradientUnits="userSpaceOnUse" id="linearGradient2373" xlink:href="#linearGradient2104" inkscape:collect="always"/>
    <linearGradient y2="215.47971" x2="68.747917" y1="215.47971" x1="26.040033" gradientTransform="matrix(0.99582913,0,0,0.99582913,0.87079473,-0.85671615)" gradientUnits="userSpaceOnUse" id="linearGradient2375" xlink:href="#linearGradient2110" inkscape:collect="always"/>
    <linearGradient y2="218.32979" x2="87.139732" y1="219.45323" x1="68.473366" gradientTransform="matrix(0.99582913,0,0,0.99582913,0.87079473,-0.85671616)" gradientUnits="userSpaceOnUse" id="linearGradient2377" xlink:href="#linearGradient2098" inkscape:collect="always"/>
    <linearGradient y2="226.43633" x2="87.139732" y1="226.43633" x1="73.07399" gradientTransform="matrix(0.99582913,0,0,0.99582913,0.87079473,-0.85671615)" gradientUnits="userSpaceOnUse" id="linearGradient2379" xlink:href="#linearGradient2098" inkscape:collect="always"/>
    <linearGradient y2="229.4481" x2="84.990685" y1="229.4481" x1="64.010452" gradientTransform="matrix(0.99582913,0,0,0.99582913,0.87079473,-0.85671616)" gradientUnits="userSpaceOnUse" id="linearGradient2381" xlink:href="#linearGradient2098" inkscape:collect="always"/>
    <linearGradient y2="237.79631" x2="31.603239" y1="229.79071" x1="60.738827" gradientTransform="matrix(0.99582913,0,0,0.99582913,0.87079473,-0.85671616)" gradientUnits="userSpaceOnUse" id="linearGradient2383" xlink:href="#linearGradient2098" inkscape:collect="always"/>
    <linearGradient y2="232.25313" x2="73.301544" y1="245.42155" x1="74.356033" gradientTransform="matrix(0.99582913,0,0,0.99582913,0.87079473,-0.85671616)" gradientUnits="userSpaceOnUse" id="linearGradient2385" xlink:href="#linearGradient2110" inkscape:collect="always"/>
    <linearGradient y2="227.73369" x2="61.029278" y1="239.53865" x1="15.984433" gradientTransform="matrix(0.99582913,0,0,0.99582913,0.87079473,-0.85671615)" gradientUnits="userSpaceOnUse" id="linearGradient2389" xlink:href="#linearGradient2110" inkscape:collect="always"/>
    <linearGradient y2="245.29109" x2="47.828709" y1="245.29109" x1="0.45401412" gradientTransform="matrix(0.99582913,0,0,0.99582913,0.87079473,-0.85671615)" gradientUnits="userSpaceOnUse" id="linearGradient2391" xlink:href="#linearGradient2110" inkscape:collect="always"/>
    <linearGradient y2="248.2049" x2="47.828709" y1="248.2049" x1="3.0690458" gradientTransform="matrix(0.99582913,0,0,0.99582913,0.87079473,-0.85671615)" gradientUnits="userSpaceOnUse" id="linearGradient2393" xlink:href="#linearGradient2110" inkscape:collect="always"/>
    <linearGradient y2="259.47876" x2="35.366211" y1="247.43947" x1="25.745007" gradientTransform="matrix(0.99582913,0,0,0.99582913,0.87079473,-0.85671615)" gradientUnits="userSpaceOnUse" id="linearGradient2395" xlink:href="#linearGradient2104" inkscape:collect="always"/>
    <linearGradient y2="257.93643" x2="47.828709" y1="250.59947" x1="26.82168" gradientTransform="matrix(0.99582913,0,0,0.99582913,0.87079473,-0.85671615)" gradientUnits="userSpaceOnUse" id="linearGradient2397" xlink:href="#linearGradient2110" inkscape:collect="always"/>
    <linearGradient y2="252.61922" x2="72.465904" y1="252.61922" x1="47.828709" gradientTransform="matrix(0.99582913,0,0,0.99582913,0.87079473,-0.85671615)" gradientUnits="userSpaceOnUse" id="linearGradient2399" xlink:href="#linearGradient2110" inkscape:collect="always"/>
    <linearGradient y2="255.66508" x2="69.110939" y1="255.66508" x1="47.828709" gradientTransform="matrix(0.99582913,0,0,0.99582913,0.87079473,-0.85671615)" gradientUnits="userSpaceOnUse" id="linearGradient2401" xlink:href="#linearGradient2098" inkscape:collect="always"/>
    <linearGradient y2="262.24741" x2="50.258846" y1="255.24037" x1="29.910975" gradientTransform="matrix(0.99582913,0,0,0.99582913,0.87079473,-0.85671615)" gradientUnits="userSpaceOnUse" id="linearGradient2403" xlink:href="#linearGradient2110" inkscape:collect="always"/>
    <linearGradient y2="258.90265" x2="65.866058" y1="258.90265" x1="47.828709" gradientTransform="matrix(0.99582913,0,0,0.99582913,0.87079473,-0.85671615)" gradientUnits="userSpaceOnUse" id="linearGradient2405" xlink:href="#linearGradient2098" inkscape:collect="always"/>
    <linearGradient y2="261.11023" x2="52.925247" y1="261.4118" x1="39.274921" gradientTransform="matrix(0.99582913,0,0,0.99582913,0.87079473,-0.85671616)" gradientUnits="userSpaceOnUse" id="linearGradient2407" xlink:href="#linearGradient2110" inkscape:collect="always"/>
    <linearGradient y2="260.43134" x2="60.346333" y1="260.43134" x1="47.828709" gradientTransform="matrix(0.99582913,0,0,0.99582913,0.87079473,-0.85671615)" gradientUnits="userSpaceOnUse" id="linearGradient2409" xlink:href="#linearGradient2110" inkscape:collect="always"/>
    <linearGradient y2="257.89557" x2="73.555878" y1="231.45634" x1="54.119331" gradientTransform="matrix(0.96437972,-0.24828898,0.24828898,0.96437972,-62.209747,25.343112)" gradientUnits="userSpaceOnUse" id="linearGradient2411" xlink:href="#linearGradient2110" inkscape:collect="always"/>
  </defs>
  
  
  <g transform="translate(0,-191.16665)" id="layer1" inkscape:groupmode="layer" inkscape:label="Ebene 1">
    <path d="" id="path3437" style="fill:#000000;stroke-width:0.0822478"/>
    <path style="fill:#ac2f13;fill-opacity:1;stroke-width:0.35411" d="" id="path1918" transform="matrix(0.26458334,0,0,0.26458334,0,191.16665)"/>
    <g id="g1048">
      <path style="fill:#297be5;fill-opacity:1;stroke-width:0.0931563" d="m 48.341992,282.31263 c -6.163408,-2.05291 -14.122286,-4.64259 -14.268132,-4.64259 -0.110184,0 -0.237921,0.23008 -0.442308,0.79668 -0.158065,0.43817 -0.287389,0.8284 -0.287389,0.86716 0,0.0387 -0.05243,0.14237 -0.116439,0.23023 -0.133267,0.18282 0.325977,0.41286 -6.616325,-3.31412 -5.156977,-2.76851 -5.291361,-2.83501 -5.454569,-2.69914 -0.07027,0.0585 -0.668661,0.86453 -1.329804,1.79125 l -1.202088,1.6849 -0.128258,-0.30726 c -0.134107,-0.3213 -2.385113,-6.72225 -4.42409,-12.58035 -0.655365,-1.88287 -1.22909,-3.42341 -1.27496,-3.42341 -0.123116,0 -1.669629,1.07316 -4.3415072,3.01268 -1.3024431,0.94545 -2.3814869,1.70636 -2.3978867,1.69093 -0.016389,-0.0155 0.7308592,-1.7403 1.6605639,-3.83302 2.970618,-6.68672 3.186795,-7.20508 3.004882,-7.20508 -0.02981,0 -1.4923767,0.73687 -3.2502943,1.63748 -1.7579278,0.90061 -3.1962193,1.6154 -3.1962193,1.58844 0,-0.0269 0.5223642,-1.65462 1.160807,-3.61699 0.6384428,-1.96239 1.1608173,-3.62319 1.1608173,-3.69069 2.04e-5,-0.15181 0.083382,-0.17693 -2.4562845,0.74033 -1.1211137,0.40492 -2.0690518,0.72505 -2.1065018,0.71139 -0.071192,-0.026 0.9951296,-1.20161 5.3866763,-5.93906 2.4454981,-2.6381 2.7116843,-2.95938 3.7056463,-4.47248 2.560911,-3.8984 4.664206,-7.17962 4.664206,-7.27632 0,-0.0595 -0.09004,-0.0854 -0.208956,-0.06 -0.114921,0.0245 -1.103136,0.24086 -2.196039,0.48082 -1.092904,0.23997 -2.046424,0.42394 -2.118938,0.40883 -0.07252,-0.0152 2.367884,-1.58597 5.423123,-3.49079 11.441102,-7.13311 13.752278,-8.54068 14.370153,-8.75187 0.233731,-0.0799 0.424975,-0.16671 0.424975,-0.19292 0,-0.0262 -0.971611,-0.0173 -2.159135,0.0197 -1.187526,0.0371 -2.13824,0.048 -2.112693,0.0243 0.0546,-0.0507 10.661999,-8.29351 15.09069,-11.72676 3.565757,-2.76426 6.687112,-5.14044 7.306705,-5.56231 0.365271,-0.24872 0.520874,-0.29592 0.975085,-0.2958 0.297258,7e-5 3.340364,0.18821 6.76249,0.41805 15.762215,1.05866 21.373695,1.45778 21.554166,1.53309 0.107276,0.0447 2.061578,2.3969 4.34292,5.22696 l 4.147893,5.14556 3.829241,1.76537 c 2.106122,0.97095 3.835665,1.77172 3.843469,1.77948 0,0 0.308336,0.53375 0.07872,0.25262 l 0.262136,0.29996 c 0.505894,0.57885 8.63013,11.45556 8.66952,11.60674 0.035,0.13398 -1.02218,9.24873 -1.13122,9.75377 -0.0382,0.17711 -5.42623,5.40433 -5.42623,5.87855 -0.01658,-0.0167 0.113581,-2.08158 0.289464,-4.58855 0.175876,-2.50697 0.606022,-5.00034 0.378288,-5.41287 l -0.471862,-0.85474 -0.402817,-0.0541 c -0.442825,-0.0594 -8.435933,-0.56952 -19.022435,-1.21394 -3.754101,-0.22852 -7.17039,-0.44026 -7.591751,-0.47052 l -0.766172,-0.0551 v 0.29027 c 0,0.30549 0.893879,8.13979 2.141006,18.76494 l 0.742972,6.32993 -0.325154,0.47033 c -0.178823,0.25867 -1.051835,1.47617 -1.940005,2.70556 l -1.614862,2.23525 0.235817,0.42368 0.235818,0.42366 -2.059443,2.56524 c -1.132684,1.41087 -2.059413,2.6369 -2.059413,2.7245 0,0.0877 0.19699,0.62495 0.437781,1.19412 l 0.437782,1.03485 -0.307951,0.24225 c -0.169363,0.13324 -1.526049,1.04356 -3.014802,2.02293 l -2.706862,1.78068 0.02393,0.3153 c 0.0131,0.1734 0.151921,0.83287 0.308229,1.46548 0.156318,0.63263 0.269183,1.16531 0.250797,1.18375 -0.03654,0.0367 -3.452564,-0.41795 -7.026769,-0.93504 -1.24561,-0.1802 -2.316812,-0.32764 -2.380478,-0.32764 -0.08905,0 -0.104436,0.27988 -0.06681,1.21101 0.02789,0.68859 0.0132,1.20696 -0.03405,1.20166 -0.04566,-0.005 -1.336684,-0.42694 -2.868969,-0.93731 z" id="path2279" sodipodi:nodetypes="cssssssscsssssssssssssssssssssssssssssscsccssscsscssccsscsscccssscssccsssscccc"/>
      <path inkscape:connector-curvature="0" id="path2281" style="fill:url(#linearGradient2351);fill-opacity:1;fill-rule:nonzero;stroke:none;stroke-width:0.0187065" d="m 83.738846,231.43197 20.733014,1.45581 -6.618082,4.89893 z" sodipodi:nodetypes="cccc"/>
      <path d="m 61.69061,235.37776 11.354657,26.092 -18.858141,-26.57714 z" style="fill:url(#linearGradient2353);fill-opacity:1;fill-rule:nonzero;stroke:none;stroke-width:0.0187065" id="path2283" inkscape:connector-curvature="0" sodipodi:nodetypes="cccc"/>
      <path sodipodi:nodetypes="cccc" inkscape:connector-curvature="0" id="path2285" style="fill:url(#linearGradient2355);fill-opacity:1;fill-rule:nonzero;stroke:none;stroke-width:0.0187065" d="m 69.981291,235.23962 3.0912,26.30949 -12.057298,-27.05388 z"/>
      <path sodipodi:nodetypes="cccc" inkscape:connector-curvature="0" id="path2287" style="fill:url(#linearGradient2357);fill-opacity:1;fill-rule:nonzero;stroke:none;stroke-width:0.0187065" d="m 64.994334,223.24925 20.51266,8.84378 -11.866987,-11.51215 z"/>
      <path sodipodi:nodetypes="cccc" inkscape:connector-curvature="0" id="path2289" style="fill:url(#linearGradient2359);fill-opacity:1;fill-rule:nonzero;stroke:none;stroke-width:0.0187777" d="M 97.856151,237.76954 85.43939,231.93975 48.113373,234.6415 Z"/>
      <path inkscape:connector-curvature="0" id="path2291" style="fill:url(#linearGradient2361);fill-opacity:1;fill-rule:nonzero;stroke:none;stroke-width:0.0187065" d="m 10.222542,235.27979 20.543604,-12.73078 53.362823,-3.48633 z" sodipodi:nodetypes="cccc"/>
      <path id="path2293" style="fill:url(#linearGradient2363);fill-opacity:1;fill-rule:nonzero;stroke:none;stroke-width:0.0187065" d="m 69.175496,212.53161 c 0,0 -39.919641,9.59918 -42.373415,10.16508 l 2.044539,-0.29694 -2.020866,0.29539 46.875213,-2.05175 -2.502544,-4.39424 h 5.27e-4 z"/>
      <path inkscape:connector-curvature="0" id="path2295" style="fill:url(#linearGradient2365);fill-opacity:1;fill-rule:nonzero;stroke:none;stroke-width:0.0187065" d="m 95.461485,220.78101 -9.954491,11.31202 2.140087,-14.9157 z"/>
      <path inkscape:connector-curvature="0" id="path2297" style="fill:url(#linearGradient2367);fill-opacity:1;fill-rule:nonzero;stroke:none;stroke-width:0.0187065" d="M 104.51042,232.89367 95.360546,220.69818 85.446775,231.9533 Z" sodipodi:nodetypes="cccc"/>
      <path inkscape:connector-curvature="0" id="path2299" style="fill:url(#linearGradient2369);fill-opacity:1;fill-rule:nonzero;stroke:none;stroke-width:0.0187065" d="m 97.057473,248.96552 0.796305,-11.17881 6.618082,-4.89893 -1.22756,10.05922 -6.186827,6.01852"/>
      <path sodipodi:nodetypes="cccc" inkscape:connector-curvature="0" id="path2301" style="fill:url(#linearGradient2371);fill-opacity:1;fill-rule:nonzero;stroke:none;stroke-width:0.0187065" d="m 87.647081,217.17733 -8.443268,-10.4343 -10.500601,5.87812 z"/>
      <path sodipodi:nodetypes="cccc" inkscape:connector-curvature="0" id="path2303" style="fill:url(#linearGradient2373);fill-opacity:1;fill-rule:nonzero;stroke:none;stroke-width:0.0187065" d="m 49.978949,204.75199 19.159118,7.76984 10.117292,-5.76994 z"/>
      <path sodipodi:nodetypes="cccc" inkscape:connector-curvature="0" id="path2305" style="fill:url(#linearGradient2375);fill-opacity:1;fill-rule:nonzero;stroke:none;stroke-width:0.0187065" d="m 26.802224,222.69653 23.176725,-17.94454 19.290178,7.82037 z"/>
      <path inkscape:connector-curvature="0" id="path2307" style="fill:url(#linearGradient2377);fill-opacity:1;fill-rule:nonzero;stroke:none;stroke-width:0.0187065" d="m 87.647081,217.17733 -14.080951,3.55478 -4.440524,-8.1881 z" sodipodi:nodetypes="cccc"/>
      <path inkscape:connector-curvature="0" id="path2309" style="fill:url(#linearGradient2379);fill-opacity:1;fill-rule:nonzero;stroke:none;stroke-width:0.0187065" d="m 87.647081,217.17733 -14.788944,3.57718 12.648857,11.33852 z" sodipodi:nodetypes="cccc"/>
      <path sodipodi:nodetypes="cccc" inkscape:connector-curvature="0" id="path2311" style="fill:url(#linearGradient2381);fill-opacity:1;fill-rule:nonzero;stroke:none;stroke-width:0.0187065" d="m 66.10887,230.91584 19.398124,1.17719 -20.540349,-8.9543 z"/>
      <path inkscape:connector-curvature="0" id="path2313" style="fill:url(#linearGradient2383);fill-opacity:1;fill-rule:nonzero;stroke:none;stroke-width:0.0187065" d="M 66.222167,230.90768 9.9901802,242.83046 65.03875,223.10769 Z" sodipodi:nodetypes="cccc"/>
      <path sodipodi:nodetypes="cccc" inkscape:connector-curvature="0" id="path2315" style="fill:url(#linearGradient2385);fill-opacity:1;fill-rule:nonzero;stroke:none;stroke-width:0.0187065" d="m 48.562313,234.64625 17.749036,-3.75768 19.568694,1.11159 z"/>
      <path inkscape:connector-curvature="0" id="path2319" style="fill:url(#linearGradient2389);fill-opacity:1;fill-rule:nonzero;stroke:none;stroke-width:0.0187065" d="m 65.026805,223.1446 -49.279157,10.90506 -5.7574678,8.7808 z" sodipodi:nodetypes="cccc"/>
      <path inkscape:connector-curvature="0" id="path2321" style="fill:url(#linearGradient2391);fill-opacity:1;fill-rule:nonzero;stroke:none;stroke-width:0.0187065" d="m 48.500018,234.6505 -38.5098378,8.17996 -8.6672606,9.34162 z"/>
      <path inkscape:connector-curvature="0" id="path2323" style="fill:url(#linearGradient2393);fill-opacity:1;fill-rule:nonzero;stroke:none;stroke-width:0.0187065" d="M 3.9270477,257.97538 48.500018,234.6505 6.5379057,250.23522 Z"/>
      <path inkscape:connector-curvature="0" id="path2325" style="fill:url(#linearGradient2395);fill-opacity:1;fill-rule:nonzero;stroke:none;stroke-width:0.0187065" d="M 5.6059473,265.91234 10.781271,254.38861 48.500018,234.6505 Z"/>
      <path inkscape:connector-curvature="0" id="path2327" style="fill:url(#linearGradient2397);fill-opacity:1;fill-rule:nonzero;stroke:none;stroke-width:0.0187065" d="M 18.524061,277.35731 12.645321,260.46619 48.500018,234.6505 Z" sodipodi:nodetypes="cccc"/>
      <path inkscape:connector-curvature="0" id="path2329" style="fill:url(#linearGradient2399);fill-opacity:1;fill-rule:nonzero;stroke:none;stroke-width:0.0187065" d="M 73.03446,261.42578 69.170079,266.76722 48.500018,234.6505 Z"/>
      <path inkscape:connector-curvature="0" id="path2331" style="fill:url(#linearGradient2401);fill-opacity:1;fill-rule:nonzero;stroke:none;stroke-width:0.0187065" d="M 65.409523,272.83354 48.500018,234.6505 69.693485,267.5802 Z"/>
      <path inkscape:connector-curvature="0" id="path2333" style="fill:url(#linearGradient2403);fill-opacity:1;fill-rule:nonzero;stroke:none;stroke-width:0.0187065" d="M 33.265298,279.9577 21.237056,273.49201 48.500018,234.6505 Z"/>
      <path inkscape:connector-curvature="0" id="path2335" style="fill:url(#linearGradient2405);fill-opacity:1;fill-rule:nonzero;stroke:none;stroke-width:0.0187065" d="M 66.462135,275.21019 48.500018,234.6505 60.189862,279.28165 Z"/>
      <path inkscape:connector-curvature="0" id="path2337" style="fill:url(#linearGradient2407);fill-opacity:1;fill-rule:nonzero;stroke:none;stroke-width:0.0187065" d="m 48.500018,234.6505 2.993967,48.76415 -17.472942,-5.7049 z"/>
      <path inkscape:connector-curvature="0" id="path2339" style="fill:url(#linearGradient2409);fill-opacity:1;fill-rule:nonzero;stroke:none;stroke-width:0.0187065" d="m 48.500018,234.6505 2.832074,46.27865 9.69918,1.37778 z" sodipodi:nodetypes="cccc"/>
      <g id="g913">
        <path sodipodi:nodetypes="ccccc" inkscape:connector-curvature="0" id="path2341" d="m 56.755442,217.22848 c 9.7056,-4.45351 18.334521,9.19849 23.472344,3.65198 -2.239659,3.57968 -7.453759,3.90526 -11.088773,3.91761 0,0 -5.577588,-0.13282 -4.847188,-4.81398 -1.205199,-1.99087 -5.022378,-1.95121 -7.536383,-2.75561 z" style="fill:#000000;fill-opacity:1;stroke:none;stroke-width:0.375614px;stroke-linecap:butt;stroke-linejoin:miter;stroke-opacity:1"/>
        <path inkscape:connector-curvature="0" id="path2343" d="m 65.851931,218.62017 a 2.9547924,2.9547924 0 0 0 -1.228081,2.39306 2.9547924,2.9547924 0 0 0 2.955027,2.95504 2.9547924,2.9547924 0 0 0 2.954292,-2.95504 2.9547924,2.9547924 0 0 0 -0.08803,-0.70573 2.4069938,2.9215925 0 0 1 -2.252216,1.90082 2.4069938,2.9215925 0 0 1 -2.407014,-2.9213 2.4069938,2.9215925 0 0 1 0.06602,-0.66685 z" style="fill:#ffffff;fill-opacity:1;stroke:none;stroke-width:0.412713;stroke-linecap:round;stroke-miterlimit:4;stroke-dasharray:none;stroke-opacity:1;paint-order:stroke fill markers"/>
        <path style="fill:#000000;fill-opacity:1;stroke:none;stroke-width:0.209952px;stroke-linecap:butt;stroke-linejoin:miter;stroke-opacity:1" d="m 91.922243,223.72124 c 0,0 -3.359235,0.83979 -2.939326,2.72935 0,0 1.364686,-0.10495 2.939326,-2.72935 z" id="path2345" inkscape:connector-curvature="0"/>
      </g>
      <path sodipodi:nodetypes="cccc" inkscape:connector-curvature="0" id="path2347" style="fill:url(#linearGradient2411);fill-opacity:1;fill-rule:nonzero;stroke:none;stroke-width:0.0187065" d="M 54.61105,235.04937 73.057694,261.48192 48.474061,234.65737 Z"/>
    </g>
  </g>
</svg>
